# xmcd
#
# Track frame offsets:
#	150
#	13108
#	27345
#	41561
#	55385
#	68962
#	88806
#	107990
#	122749
#	138317
#	155301
#	171443
#	186255
#	199981
#	212306
#	228867
#
# Disc length: 3264 seconds
#
# Revision: 1
# Processed by: cddbd v1.5.2PL0 Copyright (c) Steve Scherf et al.
# Submitted via: audiograbber 1.83.01
#
DISCID=e30cbe10
DTITLE=Various Artist - Die Deutsche Hitparade
DYEAR=1900
DGENRE=Hits
TTITLE0=Wind  - Für alle
TTITLE1=HeikeSchäfer - Die Glocken von Rom
TTITLE2=Caro Pukke - Grün Grün Grün
TTITLE3=Bernd Clüver - Der Wind von Palermo
TTITLE4=Günther Stern - Hier, da und überall
TTITLE5=Tommy Steiner  - Märchenland
TTITLE6=Peter Schilling - Region 804
TTITLE7=Paso Doble  - Computerliebe
TTITLE8=Andy Borg - Laß es mich ganz leise sagen
TTITLE9=Juliane Werding - Drei Jahre lang
TTITLE10=Daliah Lavi - Nur wenn ich lache tut's noch weh
TTITLE11=Steinwolke  - Wenn du willst
TTITLE12=Susan Schubert - Sehnsucht nach einem Gefühl
TTITLE13=Lady Lily - Patric Pacard
TTITLE14=Relax  - Ein weißes Blatt'l Papier
TTITLE15=Mary Roos  - Ich bin stark nur mit dir
EXTD=
EXTT0=
EXTT1=
EXTT2=
EXTT3=
EXTT4=
EXTT5=
EXTT6=
EXTT7=
EXTT8=
EXTT9=
EXTT10=
EXTT11=
EXTT12=
EXTT13=
EXTT14=
EXTT15=
PLAYORDER=
